<?xml version="1.0" standalone="no"?>
<svg style="width: 585px; height: 585px; justify-content: center; align-self: center; transform: scale(1);" viewBox="-350 -150 1500 1500" xmlns="http://www.w3.org/2000/svg"><rect x="-350" y="-150" width="100%" height="100%" fill="#ffffff" rx="30"></rect><g transform="rotate(0 408.51788902282715 548.8096389770508)"><g transform="translate(0 459)"><path d="M778.244 749.543C797.57 748.61 789.797 714.805 788.41 702.39C773.109 657.046 776.706 607.574 770.688 560.046C766.939 515.678 762.122 471.448 758.07 427.114C750.112 337.12 692.965 153.916 627.75 124.453C619.535 88.4068 585.604 54.7586 542.674 54.7586C513.394 20.0996 478.151 -4.29271 432.948 0.63229C414.268 1.48229 396.152 21.2943 378.253 25.1203C368.231 26.5023 279.291 22.9453 261.475 33.5263C249.065 39.8983 237.862 51.6733 241.511 66.6643C247.333 84.8263 229.24 65.1743 191.497 84.5593C114.534 130.782 160.524 192.619 162.562 194.535C114.534 261.358 72.5551 315.57 53.1321 397.247C40.5441 457.886 41.9611 520.485 31.4141 581.435C27.6901 602.569 21.9771 622.98 15.7951 643.503C9.09505 670.362 5.83721 737.306 2.14421 737.904C-4.58279 739.575 6.03205 753.387 13.1601 753.398C210.784 786.179 411.522 754.756 610.208 749.622C666.201 747.675 722.254 747.226 778.244 749.543Z" transform="translate(12.50415 -33.85719)" fill="#FFFFFF" stroke="none"></path><path d="M307.855 2.4589L307.101 2.58547C295.271 4.59142 282.709 7.69826 272.682 14.5299C263.284 20.9319 258.076 29.7199 253.737 39.9729L253.581 40.3424C250.197 48.3883 246.334 59.0025 237.322 61.9649C233.114 63.3473 228.493 63.2797 223.988 63.2138C222.432 63.191 220.89 63.1684 219.383 63.2059C213.199 63.3589 206.996 64.1349 201.161 66.2609C178.491 74.5199 162.849 94.8779 156.822 117.79C153.086 131.993 152.635 147.159 154.503 161.686C155.301 167.896 157.897 174.697 163.471 178.174C165.293 179.31 167.277 179.934 169.209 180.018C147.699 202.008 128.456 226.143 110.935 251.506C96.5071 272.393 82.7451 293.942 71.7051 316.836C59.5801 341.981 51.5401 368.321 47.2671 395.897C42.9381 423.83 41.5171 452.06 39.1441 480.196C36.8581 507.315 32.6171 533.833 26.2981 560.305C19.1281 590.339 10.5571 620.108 5.00309 650.506C2.17909 665.96 0.172089 681.582 0.016089 697.307C-0.138911 712.796 0.758089 729.109 5.69609 743.866C7.28009 748.6 11.6581 751.851 16.7541 751.086C21.1851 750.419 26.1371 746.219 25.4921 741.187C23.8091 728.052 21.7231 715.071 21.5031 701.796C21.2841 688.598 22.2531 675.327 23.8641 662.235C26.8818 637.726 32.9411 613.781 38.8117 589.837L40.3591 583.498C46.8471 556.762 52.5511 529.976 55.4461 502.585C58.2691 475.878 59.1211 449.011 61.6471 422.279C64.1921 395.354 68.8771 368.681 78.5101 343.316C87.265 320.265 99.6124 298.732 112.669 277.871L114.414 275.094C137.391 238.648 163.693 204.228 194.565 174.086C211.398 157.65 229.53 142.316 248.664 128.625C258.603 121.513 268.698 114.628 279.099 108.206C286.55 103.605 294.185 99.3049 301.704 94.8199C305.695 97.1379 309.428 100.968 312.048 103.425L314.626 105.867C319.76 110.774 324.767 115.803 329.893 120.717C341.723 132.058 353.196 143.739 365.359 154.735C377.005 165.263 389.507 175.16 403.066 183.12C410.05 187.219 417.373 190.714 424.932 193.622C431.202 196.034 441.728 199.775 446.99 193.984C450.11 191.806 451.223 187.676 448.559 184.44C445.562 177.677 435.143 176.09 428.744 173.569C421.283 170.632 414.17 166.683 407.398 162.414C394.461 154.257 382.785 144.378 371.398 134.211L369.046 132.104C356.11 120.481 343.349 108.636 328.851 98.9469C323.804 95.5729 317.429 91.2979 310.936 89.1229L312.398 88.1889C312.916 87.8509 312.6 86.9759 311.965 87.1609C310.689 87.5319 309.418 87.9229 308.148 88.3269C302.196 86.9439 296.292 87.6819 291.363 92.8679C290.954 93.2979 291.469 93.9479 291.987 93.6769C293.17 93.0619 294.393 92.8159 295.633 92.8419C279.984 99.1169 264.872 107.417 250.545 115.795C231.773 126.771 213.948 139.544 197.399 153.637C190.76 159.292 184.328 165.158 178.076 171.198C177.287 169.175 174.973 167.855 172.442 168.206C171.303 168.364 169.069 161.781 168.827 159.974C168.069 154.323 168.098 148.412 168.301 142.723C168.697 131.549 170.696 120.093 175.383 109.875C183.123 92.9999 198.68 79.2099 217.708 77.6809C228.515 76.8139 239.85 77.5959 249.275 71.2129C256.552 66.284 260.754 58.8084 264.073 50.9261L264.511 49.8729C267.783 41.8919 271.186 33.2229 278.02 27.6029C285.17 21.7238 294.466 19.0659 303.368 16.8945L305.898 16.2849C330.616 10.3786 355.677 10.9613 380.816 11.9458L388.757 12.2629C388.986 12.2729 389.079 11.9339 388.875 11.8269C364.204 -1.1861 334.85 -2.0251 307.855 2.4589ZM399.76 23.7801C393.622 22.0941 387.33 25.8471 385.547 31.8501C383.705 38.0461 383.895 45.1551 383.236 51.5901C382.919 54.6995 383.123 57.8131 383.326 60.9192C383.469 63.1015 383.612 65.2802 383.574 67.4511C380.231 63.8771 376.848 60.3481 373.332 57.0011C372.428 56.1401 371.274 57.2191 371.713 58.2501C378.911 75.1751 390.454 90.9031 402.132 104.969C414.137 119.43 427.664 132.611 441.883 144.887C448.857 150.908 456.055 156.664 463.401 162.225L464.174 162.807C471.923 168.606 480.161 173.64 490.284 172.117C498.934 170.815 505.966 165.543 512.443 159.977L513.703 158.885C520.913 152.598 527.838 145.97 534.422 139.03C547.676 125.061 559.6 109.662 570.06 93.5021C570.181 93.315 570.303 93.1276 570.425 92.9399C572.897 89.1386 575.456 85.2033 574.127 80.4281C573.486 78.1261 572.12 76.5591 570.401 75.6991C569.992 75.1811 569.517 74.6791 568.957 74.2041L568.857 74.1151C568.433 72.9601 568.02 71.8031 567.621 70.6401C566.966 68.8191 566.296 67.0081 565.594 65.2041C564.086 61.3261 562.598 57.4381 560.975 53.6061C559.425 49.9461 557.893 46.2731 556.293 42.6341L556.156 42.3193C554.841 39.2874 553.892 36.5844 550.811 34.9701C550.644 34.8831 550.373 34.8781 550.242 35.0431C548.077 37.7878 548.14 40.9699 548.207 44.2948C548.209 44.4248 548.212 44.5549 548.214 44.6853L548.229 45.7651C548.258 51.1201 548.274 56.4721 548.483 61.8231C548.54 63.2807 548.538 64.9084 548.537 66.6317C548.532 73.9061 548.525 82.884 552.868 87.9571C550.542 91.4671 548.153 94.9361 545.686 98.3471C534.575 113.699 521.866 127.977 508.141 141.036L507.851 141.313C502.313 146.641 495.031 155.2 486.971 155.94C483.654 156.245 480.591 154.478 477.845 152.68L476.353 151.691C472.351 149.039 468.458 146.207 464.595 143.359C447.626 130.843 432.234 116.708 417.082 102.093C411.929 97.1238 406.918 92.0036 401.937 86.8559L395.543 80.2321C393.683 78.3061 391.843 76.3463 390.009 74.3746L386.343 70.4221C389.67 65.1641 394.434 60.9491 397.7 55.5961C401.236 49.8031 405.43 44.3681 407.83 37.9941C410.029 32.1531 405.385 25.3261 399.76 23.7801ZM563.599 43.1334C571.711 40.3194 581.853 42.8734 589.786 45.3314C598.624 48.0714 606.791 53.1174 613.793 59.1104C621.18 65.4304 627.285 73.2344 631.598 81.9524L632.01 82.7923C635.949 90.8792 640.436 101.981 638.45 110.865C638.393 111.117 638.328 111.36 638.254 111.595C654.349 119.518 669.213 129.442 682.157 142.02C697.229 156.665 709.991 173.33 720.791 191.334C763.684 262.842 771.234 348.722 776.3 430.271L777.563 450.948C780.314 495.597 783.533 540.14 791.896 584.172L792.506 587.351C794.379 597.012 796.421 606.688 798.468 616.383C806.188 652.959 813.968 689.819 812.944 727.202C812.555 741.372 791.613 741.276 791.006 727.202C788.72 674.229 776.358 623.083 767.987 570.938C753.258 479.197 760.638 384.617 739.768 293.795C731.578 258.153 718.891 223.58 700.774 191.765C691.825 176.048 681.586 160.861 669.592 147.302C659.273 135.635 648.548 124.407 636.489 114.599C632.635 118.459 624.936 116.492 622.924 110.865C621.542 106.998 621.945 102.477 621.058 98.4264C620.235 94.6674 619.1 90.9404 617.588 87.4004C614.574 80.3454 610.15 73.5704 605.043 67.8604C599.526 61.6884 593.185 56.5604 586.09 52.3264C578.946 48.0634 571.133 46.7904 563.599 43.6754C563.345 43.5704 563.321 43.2304 563.599 43.1334ZM490.625 187.576C490.531 186.673 489.311 186.671 489.219 187.576C487.291 206.218 485.146 224.758 483.806 243.456C482.496 261.739 481.319 280.017 480.773 298.338C479.675 335.252 479.661 372.181 478.995 409.1C478.268 449.36 477.938 489.613 478.327 529.858L473.318 530.22C444.972 532.364 416.602 534.242 388.23 536.072L356.312 538.123C355.902 538.149 355.743 538.545 355.847 538.838C355.408 538.976 355.025 539.287 354.926 539.741C353.481 546.311 353.493 553.189 352.142 559.83C350.721 566.828 348.661 573.77 346.147 580.452C341.126 593.8 333.966 606.494 325.588 618.01C317.207 629.53 307.297 640.17 296.502 649.464C290.801 654.372 285.214 659.169 281.403 665.786C277.683 672.246 275.799 679.485 274.075 686.677L263.584 730.777C263.384 731.62 263.163 732.475 262.94 733.339C261.672 738.249 260.332 743.441 262.254 748.233C265.149 755.453 273.299 758.382 279.451 752.774C286.045 746.764 286.557 734.615 288.361 726.285L294.039 700.059L294.209 699.262C295.661 692.334 296.682 684.792 299.625 678.344C302.506 672.029 307.889 667.048 312.581 662.09L313.231 661.401C333.123 640.231 350.589 614.626 357.36 586.038C359.25 578.058 360.355 569.952 360.434 561.746C360.503 554.591 360.234 546.083 357.41 539.416C357.367 539.314 357.303 539.237 357.238 539.16C396.265 539.526 435.282 539.356 474.309 539.186C475.683 539.181 477.057 539.162 478.432 539.153C478.808 569.316 479.598 599.475 480.956 629.626C482.828 671.211 484.716 712.829 487.578 754.358C487.785 757.371 492.056 757.377 492.265 754.358C494.806 717.481 496.595 680.523 498.258 643.597L498.873 629.942C500.232 599.599 501.489 569.26 501.594 538.884C511.992 538.707 522.389 538.47 532.791 538.178C542.703 537.9 552.611 537.537 562.52 537.152C567.144 536.974 571.768 536.791 576.392 536.604C581.293 536.407 585.626 536.566 588.447 532.015C589.67 530.042 589.012 527.882 587.7 526.22C584.88 522.646 580.543 523.022 576.401 523.381C575.73 523.44 575.064 523.497 574.411 523.538L567.475 523.963L550.628 524.985C544.021 525.388 537.414 525.797 530.808 526.224C521.071 526.852 511.339 527.501 501.608 528.175C501.468 456.22 501.138 384.245 499.478 312.308C499.002 291.653 498.014 271.049 496.537 250.44C495.352 233.913 493.718 217.495 492.02 201.045L490.625 187.576ZM699.227 238.384C699.29 237.426 700.706 237.411 700.727 238.384C700.906 246.624 701.078 254.864 701.249 263.105C702.625 329.507 701.777 396.066 708.439 462.24C711.581 493.441 717.367 524.183 724.062 554.797C727.488 570.462 731.082 586.09 734.497 601.757C737.825 617.026 741.394 632.369 744.034 647.78C746.628 662.926 748.952 678.189 749.995 693.53L750.123 695.532C750.208 696.94 750.354 698.474 750.507 700.08C751.161 706.949 751.94 715.141 748.623 720.48C744.189 727.616 735.7 727.744 730.949 720.932C727.651 716.204 727.398 708.755 727.171 702.109C727.091 699.765 727.015 697.521 726.809 695.532C726.008 687.759 725.161 679.98 724.199 672.225C722.322 657.098 719.849 642.005 717.277 626.981C711.92 595.693 704.15 564.799 698.415 533.561C692.537 501.552 688.359 469.314 688.183 436.724C688.064 414.378 689.634 392.061 691.204 369.756C691.942 359.255 692.681 348.757 693.243 338.259C695.027 304.951 697.055 271.668 699.227 238.384ZM189.527 401.641C189.187 399.591 191.766 398.321 192.955 400.196C206.546 421.618 213.099 444.887 215.861 469.956C218.301 492.081 217.582 514.525 216.367 536.708C215.071 560.368 213.559 584.022 212.03 607.669L209.681 643.932L203.786 734.841C203.364 741.344 201.888 747.257 196.289 750.28C195.58 750.872 194.841 751.403 193.98 751.863C190.955 753.48 186.943 752.663 185.194 749.559L185.895 750.02C186.506 750.405 185.82 749.868 183.837 748.411L182.154 746.233C180.931 744.395 180.15 742.588 179.836 740.403C179.474 737.887 179.728 735.191 179.974 732.575C180.06 731.66 180.145 730.756 180.202 729.872L184.066 670.26C187.071 623.917 190.58 577.587 193.225 531.22C194.457 509.61 195.32 487.979 194.736 466.331C194.154 444.803 193.057 422.91 189.527 401.641ZM595.836 533.129C595.566 532.88 595.127 533.056 595.115 533.428C594.93 539.644 598.101 546.787 600.836 552.947C601.431 554.287 602.005 555.58 602.519 556.806L603.013 557.98C605.993 565.024 609.245 572.075 613.303 578.555C618.047 586.131 623.312 593.39 629.149 600.16C634.652 606.543 640.847 612.076 646.809 618.003C652.727 623.887 656.334 630.017 658.227 638.139C660.374 647.362 661.316 656.935 662.476 666.321L662.977 670.446C663.961 678.696 664.84 686.959 665.615 695.232C665.819 697.406 665.914 699.759 666.013 702.192C666.37 710.955 666.768 720.741 672.412 726.828C676.609 731.355 683.668 729.7 686.773 724.979C689.673 720.566 689.548 715.442 689.085 710.392L688.926 708.757C688.406 703.598 687.77 698.447 687.132 693.301C685.82 682.722 684.365 672.158 682.741 661.622L682.449 659.702C679.786 641.949 677.747 623.041 665.125 609.265C659.076 602.663 651.615 597.344 644.957 591.381C638.812 585.879 632.888 580.042 627.33 573.948C621.354 567.395 615.425 560.707 610.099 553.611C607.441 550.069 604.906 546.433 602.492 542.721C600.399 539.502 598.68 535.746 595.836 533.129Z" transform="translate(2.000311 -20.99981)" fill="#000000" fill-rule="evenodd" stroke="none"></path></g><g transform="translate(225 0)"><g><g><path d="M360.502 209.076C358.126 178.332 361.808 146.108 349.954 116.886C329.286 68.4014 271.33 52.2353 226.399 33.7763C208.399 28.4577 147.83 27.7143 126.754 20.6749C79.0537 4.74311 67.6569 -14.2394 29.7547 16.0954C23.3567 21.2773 19.3537 26.9093 16.4337 34.6043L16.5537 34.6373C15.7197 37.8453 16.6137 41.0463 18.4927 43.4913C2.05874 60.2893 -4.81826 85.4734 3.61374 107.834C31.1307 166.023 29.8367 197.486 20.9707 260.042C9.39274 318.442 35.8497 339.775 79.6657 371.551C77.8817 375.01 77.5117 379.607 79.8377 382.659C130.505 453.858 226.038 487.853 307.891 451.715C341.116 436.927 355.949 401.543 364.414 369.616C374.275 333.867 377.305 296.197 369.277 259.781C366.039 242.939 361.821 226.219 360.502 209.076Z" transform="translate(36.99996 34.68025)" fill="#FFFFFF" stroke="none"></path><path d="M205.244 0.138062C211.394 -0.785447 216.039 3.03027 218.248 8.40847L218.364 8.69806C219.074 10.5281 219.864 12.3081 220.714 14.0581C236.104 6.50806 258.064 8.44806 267.804 23.7381C274.006 33.4825 271.297 44.8514 268.781 55.4147C268.477 56.689 268.176 57.9515 267.894 59.1981L266.174 66.8281C269.499 68.9438 272.006 72.7327 271.888 76.656L271.874 76.9581L271.174 87.5981C273.394 85.3481 275.424 82.8981 277.234 80.2881C278.484 77.9981 279.834 75.7481 281.284 73.5681C289.814 60.7381 308.964 71.8881 301.924 85.6281C300.574 88.2781 299.054 90.7881 297.424 93.2081C295.584 96.7781 294.074 100.448 292.914 104.218C296.244 105.668 298.804 108.888 299.074 113.748C299.704 125.098 293.744 134.568 284.264 140.518C281.474 142.268 278.594 142.608 275.984 141.958C275.524 142.578 275.064 143.198 274.624 143.828C278.404 146.898 281.814 150.398 284.744 154.278C293.564 152.958 302.434 152.338 311.304 152.318C322.144 147.008 335.124 147.118 346.774 149.108C354.274 150.388 361.474 152.878 368.854 154.668C376.634 156.548 384.534 156.618 392.404 157.898C402.324 159.508 411.024 164.088 416.494 171.398C422.504 171.578 428.824 174.038 434.064 177.378C446.264 185.158 458.394 193.048 470.564 200.878C475.235 203.884 476.981 208.683 476.122 214.036L476.064 214.378L475.654 216.598L476.617 217.964C480.341 223.224 484.394 228.733 486.804 234.538C491.264 240.968 495.294 247.708 498.864 254.658C503.674 263.998 507.644 273.898 510.334 284.058C511.004 286.628 511.674 289.218 512.114 291.838C512.59 294.633 512.153 296.955 511.682 299.455C511.529 300.263 511.374 301.09 511.244 301.958C510.584 306.458 510.344 311.018 509.644 315.528C509.174 318.518 506.634 319.988 503.974 320.068C504.974 327.678 505.694 335.338 506.384 342.938C507.354 353.798 508.014 364.688 508.584 375.578C511.524 379.848 517.534 383.228 521.874 384.398C527.884 386.008 534.184 384.258 539.864 382.208C543.434 380.918 546.364 385.408 544.624 388.408C539.154 397.828 527.454 397.788 518.594 393.618C514.844 391.858 511.554 389.308 509.114 385.988C509.264 389.148 509.424 392.308 509.584 395.478L509.733 398.349C510.033 403.927 510.39 409.537 510.749 415.167C512.547 443.381 514.376 472.09 509.124 499.768C498.214 557.278 450.622 601.068 392.484 604.468C361.976 606.253 336.571 597.242 323.937 592.215C311.304 587.188 316.214 576.939 324.984 579.869C340.092 584.916 367.846 592.435 392.684 589.188C451.224 581.535 500.864 552.276 495.764 426.258C495.041 408.387 492.814 390.508 492.334 372.638C491.874 355.168 492.044 337.688 491.274 320.228L491.017 314.271C490.717 307.31 490.395 300.317 489.874 293.348C489.244 290.648 488.724 287.908 487.954 285.258C485.864 278.048 483.134 271.038 479.744 264.348C478.994 264.918 478.154 265.328 477.244 265.488C470.334 266.728 463.854 266.378 457.384 263.498C454.364 262.168 451.704 260.398 449.224 258.208C448.044 257.178 447.254 256.178 446.634 255.138C443.504 255.188 440.374 254.248 438.414 251.998C436.179 249.434 435.807 246.785 436.682 244.333L436.774 244.088L436.554 244.008C433.914 250.838 428.654 256.848 422.884 260.908C413.764 267.348 402.354 269.208 391.414 269.378C379.334 269.558 366.594 267.698 354.674 265.798C351.524 265.298 348.394 264.728 345.324 263.958C345.204 264.078 345.084 264.218 344.954 264.338C334.724 274.128 320.334 276.648 307.354 271.058C299.854 267.828 293.564 262.628 288.004 256.668C287.924 259.788 287.764 262.908 287.494 265.998L287.382 267.225C286.829 272.98 285.763 279.085 281.414 283.238C274.384 289.968 264.184 287.268 256.074 282.888C256.084 283.098 256.084 283.318 256.084 283.538C258.274 290.978 260.474 298.428 262.674 305.878L263.148 307.465C264.748 312.755 266.502 318.052 266.984 323.588C267.904 334.168 260.864 344.618 249.104 341.068C242.936 339.213 237.994 334.026 233.252 329.872L230.264 327.288C237.994 352.558 243.354 378.728 243.854 405.098C243.884 406.528 242.654 407.608 241.294 407.658C238.114 407.788 234.694 407.158 231.494 405.888C231.314 405.878 231.134 405.868 230.944 405.838C225.484 405.048 220.414 403.078 215.944 400.168C216.974 403.438 217.434 406.948 217.164 410.618C217.094 411.508 215.704 411.818 215.504 410.838C212.924 398.148 198.074 388.558 185.274 390.988C171.534 393.598 161.414 405.418 158.934 418.868C156.274 433.318 161.364 450.028 170.794 461.178C175.134 466.318 180.844 470.608 187.624 471.688C190.724 472.178 193.944 472.008 196.954 471.128C198.234 470.748 199.434 470.218 200.654 469.718C202.434 468.998 204.514 468.888 206.194 468.128C210.004 466.418 213.834 469.928 211.904 473.838C210.224 477.248 208.714 479.548 205.924 481.308C208.184 484.068 210.234 487.908 210.994 488.938C214.874 494.178 218.814 499.128 223.234 503.918C227.734 508.778 232.644 513.218 237.834 517.328L240.016 519.052C245.015 523.017 249.368 526.691 252.894 532.378C255.674 536.868 252.074 542.958 246.864 542.888C230.564 542.658 218.714 528.338 210.274 515.828C209.074 514.038 207.944 512.148 206.894 510.208C206.514 510.818 206.094 511.388 205.624 511.908L206.554 514.408C209.314 521.768 197.424 526.578 193.974 519.708C191.464 514.728 188.554 509.988 185.314 505.508C183.404 505.238 181.534 504.078 180.494 502.578C177.864 498.768 174.914 494.918 172.424 490.858C171.044 489.548 169.624 488.288 168.174 487.058C167.754 487.428 167.324 487.798 166.914 488.188C165.094 492.338 162.844 496.128 160.054 499.698L159.456 500.46C154.111 507.196 147.149 514.09 138.534 515.738C135.904 516.238 133.374 512.968 135.704 510.878C141.734 505.458 148.864 501.768 154.424 495.718C157.163 492.737 159.679 489.455 161.841 486.015L162.334 485.218C162.694 484.628 163.064 484.038 163.444 483.438C160.934 481.728 158.424 480.008 155.914 478.288C149.004 484.191 140.006 486.892 132.364 491.782L131.604 492.278C124.694 496.898 117.414 486.678 122.954 481.068C129.061 474.907 134.159 467.56 139.569 460.712C137.025 456.026 135.821 450.485 135.37 444.885C135.192 443.3 135.053 441.714 134.914 440.128C131.034 440.188 127.134 438.858 123.834 436.568L122.584 435.678C118.574 436.958 114.364 437.578 110.334 437.468C100.854 437.188 96.9741 426.358 102.904 419.508C108.954 412.508 119.544 410.978 127.934 414.378C128.204 414.238 128.484 414.088 128.754 413.938C128.354 412.098 128.443 410.429 128.898 408.963L128.766 408.069C126.921 405.238 125.708 402.006 125.248 398.591C124.884 395.886 124.958 393.205 125.584 390.534C125.792 389.645 126.225 388.724 126.556 387.797C125.874 386.075 125.473 384.295 125.349 382.505C125.158 382.278 124.968 382.045 124.788 381.793C120.625 375.948 121.466 368.905 125.428 364.175C125.446 363.874 125.474 363.573 125.515 363.274C125.283 362.752 125.07 362.225 124.876 361.692C121.005 357.787 118.163 353.088 118.693 347.265C119.004 343.839 120.412 340.755 122.543 338.45C122.165 337.332 122.129 336.037 122.587 334.956C119.186 325.91 119.616 315.015 122.064 304.898C121.524 303.358 121.244 301.688 121.304 299.918C121.584 292.408 128.084 285.508 135.784 285.598C136.711 285.606 137.579 285.727 138.413 285.904L138.424 285.725C138.719 283.471 139.339 281.388 140.244 279.519C139.799 279.358 139.387 279.127 139.026 278.82C134.092 281.452 128.871 283.464 123.397 284.835C119.372 285.843 115.249 281.268 117.751 277.49C118.912 275.737 120.193 274.163 121.573 272.725C119.611 272.736 117.619 272.869 115.604 273.128C111.984 273.598 107.944 271.128 105.594 267.788C102.674 270.628 99.7441 273.458 96.8141 276.288C89.3941 283.478 78.1842 278.188 77.0141 268.708C74.8042 268.118 72.7441 267.118 70.9342 265.688C59.2341 270.768 46.6441 273.558 33.7741 274.088C24.5341 274.468 19.1341 263.708 23.4541 256.108C26.3541 251.008 29.9541 246.428 34.1041 242.448C27.6641 244.418 21.0141 245.838 14.2241 246.748C10.5541 247.238 5.36415 244.198 3.89415 240.828C-1.72585 227.868 -1.24585 214.358 5.22415 201.748C5.47415 201.248 5.75415 200.768 6.02415 200.288C6.69415 198.618 7.42415 196.968 8.21415 195.348C0.254148 187.048 -0.435852 174.708 3.85415 164.378C2.13415 161.588 1.47415 158.228 2.64415 155.188C5.97415 146.438 10.7741 138.358 16.8341 131.418C16.2541 130.298 15.7441 129.108 15.3141 127.828C11.9041 117.478 15.8541 104.988 23.8241 97.7781C28.8341 93.2381 34.5941 90.5181 40.7441 88.7781C43.3341 84.1981 46.6642 80.0681 50.5441 76.5881C50.6941 76.2581 50.8441 75.9281 51.0141 75.5981C57.0541 64.2181 68.0541 58.1181 79.8441 56.7081C80.3041 52.2581 83.3041 48.0081 87.6641 46.6281C88.8642 42.7781 90.6542 39.0981 93.1141 35.7581C96.9841 30.4981 103.414 28.0181 109.474 31.4681C112.794 33.3581 115.974 35.5281 118.954 37.9281C120.293 37.3004 121.81 36.8942 123.522 36.7647L123.954 36.7381L133.814 36.2381C137.944 34.4081 142.064 32.4881 146.194 30.6181C148.674 28.5681 151.444 26.8581 154.464 25.5881C157.884 24.1581 161.384 23.3481 164.894 23.0781C167.744 22.1481 170.614 21.3281 173.534 20.6881C180.394 19.1881 187.574 18.3481 194.694 18.4181C194.84 16.5752 194.912 14.7103 194.898 12.8234L194.884 11.8781C194.724 5.82806 199.554 0.998062 205.244 0.138062ZM193.715 176.722C208.756 164.739 228.963 152.884 249.041 152.356C253.684 154.137 257.976 156.549 261.755 159.598C246.315 164.588 231.795 172.268 218.805 182.068C201.675 194.998 187.425 210.538 174.485 227.588C169.794 233.763 165.418 240.157 161.389 246.756L161.35 246.937C160.284 250.851 158.452 254.543 156.356 258.041C155.805 257.467 155.108 257.034 154.269 256.834C151.665 256.213 149.3 254.904 147.477 253.076C147.915 251.395 148.516 249.768 149.325 248.256L149.645 246.858C150.675 242.298 151.445 237.728 152.675 233.208C154.542 226.363 156.752 219.568 159.326 212.912C169.331 199.547 180.63 187.147 193.715 176.722ZM134.604 289.878C132.484 289.948 133.194 292.008 134.284 290.288C134.374 290.148 134.484 290.008 134.604 289.878ZM199.113 418.81C191.067 414.94 183.571 413.583 174.724 413.068L174.603 413.067C173.544 413.12 173.16 414.737 174.134 415.248C181.024 418.878 188.014 424.308 193.704 429.588C199.344 434.828 204.104 443.228 212.434 443.798C215.474 444.008 217.404 441.208 217.684 438.548C218.674 429.198 206.914 422.678 199.804 419.148L199.113 418.81ZM146.958 468.921L146.293 470.145C146.185 470.345 146.079 470.543 145.975 470.738C147.385 470.628 148.805 470.658 150.205 470.818L150.201 470.669C150.021 470.608 149.841 470.552 149.669 470.468C148.703 470.004 147.805 469.484 146.958 468.921ZM195.374 484.688C196.364 484.568 197.354 484.398 198.334 484.188C198.304 485.458 198.444 486.828 198.684 488.188C197.874 487.788 197.064 487.358 196.264 486.908C195.974 486.168 195.674 485.428 195.374 484.688Z" transform="translate(-100 -97.00085)" fill="#000000" fill-rule="evenodd" stroke="none"></path></g></g><g transform="translate(159 186)"><g><path d="M140.63 0.473197L139.193 0.179116C137.503 -0.15929 135.804 -0.0161244 134.311 0.591153C132.847 1.18684 131.572 2.2242 130.68 3.72083C129.495 5.71373 129.337 7.38618 129.887 9.59525C130.311 11.3022 131.242 12.5864 132.46 13.5139C133.744 14.4911 135.37 15.0612 137.06 15.2595C144.854 16.175 152.53 17.8896 159.992 20.3235C163.488 21.4643 166.788 23.0096 170.058 24.6132L172.877 26.002C175.477 27.2735 178.163 28.499 181.557 29.3885C181.824 29.4584 182.087 29.5243 182.349 29.5865C183.29 29.2909 183.45 28.9329 183.649 28.6733L183.73 28.5721C183.972 28.2679 184.271 27.8025 183.988 25.6306C176.583 10.2711 156.267 3.74181 140.63 0.473197ZM43.5878 4.83023L45.4652 4.50163C51.273 3.49719 58.4944 2.53203 62.6028 7.20123C64.7819 9.67723 65.5318 14.2792 62.6028 16.6492C58.7671 19.7539 54.6298 19.6513 50.2182 19.5419C48.7043 19.5044 47.1582 19.466 45.5808 19.5562C40.4928 19.8482 35.6028 20.6902 30.7018 22.0912C19.9498 25.1642 11.1888 30.7742 2.00585 36.9342C0.800849 37.7422 -0.429151 36.2012 0.145849 35.0742C5.44685 24.6912 15.7198 16.1622 26.0098 10.9632C31.5019 8.18823 37.5118 5.88623 43.5878 4.83023ZM29.9632 50.1461C30.7976 39.7899 46.5702 37.4381 48.1392 47.6861C49.5442 56.8661 47.8902 65.2991 43.7552 73.5641C39.8042 81.4601 29.8737 77.7763 29.1227 70.5863C28.3809 63.4843 28.9069 59.2482 29.4428 54.933C29.6341 53.3921 29.8267 51.8412 29.9632 50.1461ZM159.205 41.8262C155.401 40.7152 152.226 42.6812 150.027 45.5612C149.773 45.8932 149.566 46.2222 149.38 46.5482C142.515 52.8562 145.101 65.6452 150.501 72.0492C153.814 75.9762 161.145 74.8452 163.413 70.3852C167.587 62.1722 171.09 45.2992 159.205 41.8262ZM128.748 119.039C136.872 107.66 125.366 96.9569 117.814 92.3669C115.836 90.9469 117.406 86.2431 121.634 86.9701C160.031 93.5671 140.136 159.708 91.112 123.413C85.2754 118.704 92.3434 108.334 98.6342 112.366C98.9532 112.611 99.2876 112.869 99.6364 113.139C106.704 118.603 119.636 128.601 128.748 119.039ZM93.5865 188.926C86.8642 186.184 80.8663 181.61 76.4812 175.766C74.9566 173.735 74.5614 171.589 74.8812 169.627C75.2408 167.421 76.546 165.422 78.326 164.08C80.1115 162.735 82.345 162.072 84.5043 162.41C86.3806 162.704 88.2484 163.731 89.7265 165.862L90.0354 166.288C92.6424 169.815 96.0396 172.708 99.9104 174.574C103.641 176.372 107.814 177.211 112.132 176.723C120.356 175.794 126.024 171.346 132.049 165.306C132.796 164.544 133.543 163.757 134.294 162.958C134.768 162.234 135.426 161.768 136.157 161.524C136.968 161.253 137.886 161.268 138.726 161.562C139.537 161.845 140.262 162.381 140.747 163.094C141.209 163.772 141.471 164.61 141.386 165.574C140.835 171.833 137.562 177.419 132.914 181.805C127.752 186.677 120.909 190.047 114.466 191.229C107.368 192.531 100.136 191.598 93.5865 188.926Z" transform="translate(53.00005 52.00027)" fill="#000000" fill-rule="evenodd" stroke="none"></path></g></g><g transform="translate(123 338)"></g><g transform="translate(47 241)"></g></g></g></svg>