<?xml version="1.0" standalone="no"?>
<svg style="width: 585px; height: 585px; justify-content: center; align-self: center; transform: scale(1);" viewBox="-350 -150 1500 1500" xmlns="http://www.w3.org/2000/svg"><rect x="-350" y="-150" width="100%" height="100%" fill="#ffffff" rx="30"></rect><g transform="rotate(0 402.96013259887695 608.5043411254883)"><g transform="translate(0 459)"><path d="M733.147 436.112C733.147 428.02 721.947 413.657 721.928 406.328C731.344 404.645 739.216 391.888 737.13 383.899C733.455 381.09 723.822 375.56 719.838 372.978C695.565 373.714 704.79 339.945 702.043 322.78C699.277 305.986 697.223 288.426 693.175 271.537C685.985 258.023 682.611 242.873 675.739 229.427C672.67 224.971 667.71 220.886 666.225 215.709C651.191 199.289 630.495 189.447 613.463 175.54C620.073 173.424 619.632 164.509 619.205 158.784C620.743 151.315 619.1 141.947 612.288 137.739C609.986 130.239 599.924 127.621 594.04 132.399C590.175 115.076 575.054 104.566 559.214 98.1382C559.228 98.0872 559.241 98.0372 559.256 97.9862C543.281 91.6462 524.134 88.4855 508.194 92.0495C516.608 -1.69929 444.805 -5.14063 408.364 2.73778C389.725 6.76756 361.758 19.3134 355.404 36.7544C351.818 46.6009 341.524 78.3569 340.059 88.4855C312.232 72.6065 279.972 51.6682 255.836 83.6362C251.003 89.2072 245.655 93.3452 238.423 95.2592C215.843 101.118 185.873 101.314 173.039 124.332C165.368 138.592 172.267 147.988 170.206 162.253C68.5633 233.632 -16.3777 496.585 2.6943 618.918C7.2823 662.697 29.6823 740.186 84.9713 730.525C113.171 761.369 586.495 761.369 635.302 730.525C675.477 741.033 716.299 724.767 733.147 686.289C754.542 633.527 731.869 576.546 727.851 522.421C725.411 508.756 721.779 497.909 719.838 483.919C719.029 478.09 721.82 468.392 719.838 463.018C720.773 459.52 733.147 444.203 733.147 436.112Z" transform="translate(30.9998 -44.64909)" fill="#FFFFFF" stroke="none"></path><path d="M369.588 6.25729C369.661 6.58229 369.712 6.90329 369.758 7.22429C370.092 8.59429 370.217 9.91129 370.176 11.2343C370.196 11.7113 370.161 12.1893 370.072 12.6623C369.893 14.2193 369.518 15.8173 369.011 17.5643C367.932 21.2813 366.696 24.9533 365.315 28.5703C362.585 35.7233 359.362 42.5483 355.378 49.0903C348.181 60.9073 339.032 70.7163 328.246 79.1953C330.293 80.8843 332.294 82.6413 334.299 84.3663C343.99 92.7063 353.419 101.424 362.552 110.372C378.771 126.265 394.664 142.453 410.184 159.029C417.839 167.204 425.352 175.486 432.824 183.824L433.069 184.105L433.334 184.42C433.685 184.845 434.082 185.346 434.516 185.895C437.366 189.497 441.814 195.119 445.248 194.052C447.246 193.43 449.35 190.449 450.712 189.027L453.221 186.411C454.055 185.537 454.884 184.657 455.698 183.765C470.294 167.773 484.105 151.167 497.073 133.81C503.401 125.341 509.518 116.713 515.413 107.935C518.443 103.422 521.417 98.8693 524.331 94.2783C527.149 89.8383 529.428 85.0663 533.581 81.7523C536.629 79.3203 540.852 81.5503 540.084 85.5373C538.874 91.8163 534.528 97.1263 531.106 102.433C527.669 107.766 524.151 113.047 520.554 118.272C513.631 128.332 506.408 138.18 498.927 147.83C492.485 156.141 485.763 164.238 478.86 172.171L476.973 174.33C469.548 182.795 462.26 191.781 454.055 199.507C446.708 206.426 438.684 204.41 431.991 197.686C423.526 189.185 415.667 179.991 407.522 171.18C391.246 153.572 374.8 136.098 358.184 118.81L352.722 113.12C346.353 106.473 340.01 99.7831 333.833 92.9713L333.036 92.0832C325.991 84.1587 318.828 74.2313 308.813 70.2023C308.089 69.9113 308.355 68.8833 309.137 69.0273C315.548 70.2123 320.9 73.4423 325.88 77.3013C330.356 69.8943 334.35 62.0863 337.832 54.1003L335.598 53.1303C319.614 46.2237 301.599 39.2598 284.438 40.3793C277.522 40.8293 270.143 43.4493 265.368 48.6413C261.044 53.3443 258.885 59.6863 254.917 64.6953C250.372 70.4323 244.444 73.0143 237.169 73.2473L233.631 73.3546C229.563 73.4866 225.661 73.7001 221.534 74.5953C210.352 77.0193 198.563 80.9523 189.185 87.6693C185.783 90.1053 182.271 93.4553 180.626 97.1463C178.995 100.803 178.526 105.082 178.367 109.029C178.338 109.753 178.402 110.564 178.467 111.393C178.574 112.766 178.685 114.185 178.386 115.333C178.44 115.125 178.465 115.237 178.472 115.456C179.971 116.638 180.992 118.603 181.103 120.561C190.451 115.689 200.128 111.419 209.993 107.57C220.977 103.285 232.302 99.8513 243.629 96.5993C254.715 93.4183 266.319 92.1023 277.62 89.8343C279.059 89.5453 279.559 91.4883 278.218 92.0043C266.34 96.5663 254.847 101.974 242.87 106.266C230.899 110.557 219.017 115.201 207.393 120.363C184.925 130.344 163.222 143.044 145.521 160.275C128.233 177.105 114.898 197.55 102.496 218.106C90.006 238.807 78.859 260.262 68.924 282.301C49.27 325.9 34.532 371.741 24.829 418.565C15.386 464.131 10.11 511.324 11.867 557.897C12.701 580.017 15.403 602.154 21.687 623.428C24.689 633.592 28.447 643.523 33.195 653.004C38.202 663 44.948 671.904 49.52 682.07C49.896 682.906 50.04 683.709 50.019 684.455C69.519 701.35 100.041 689.965 121.145 679.878C169.705 656.658 217.365 631.248 262.665 602.088C307.375 573.307 349.745 541.187 391.115 507.848C387.915 504.548 385.094 500.848 382.615 497.498C377.495 490.578 373.645 482.738 370.995 474.557C367.895 464.977 366.934 454.727 367.815 444.718L368.065 441.887C368.908 432.435 369.881 422.844 371.955 413.607C371.974 413.488 372.065 413.437 372.165 413.437C372.264 413.437 372.365 413.498 372.405 413.607C377.995 431.498 378.445 450.727 384.724 468.388C387.254 475.488 391.174 482.348 395.875 488.238C397.905 490.787 400.285 492.998 402.714 495.158C402.875 494.057 403.094 492.968 403.424 491.898L403.686 491.051C404.011 490.023 404.414 488.879 404.974 487.867C404.184 487.638 403.415 487.388 402.655 487.107C402.054 486.888 401.924 485.918 402.655 485.758C404.645 485.298 406.695 485.068 408.785 484.968C409.115 484.918 409.434 484.908 409.754 484.928C412.303 484.849 414.881 484.941 417.411 485.032C418.763 485.08 420.102 485.127 421.415 485.148C427.945 485.248 434.455 485.367 440.974 485.658C444.107 485.794 447.342 486.046 450.624 486.301C460.416 487.064 470.628 487.86 479.825 485.687C490.985 483.048 501.985 475.607 510.934 468.607C518.754 462.488 524.785 455.218 531.274 447.968C530.808 448.042 530.346 448.111 529.885 448.175L525.7 448.748C520.418 449.453 514.147 450.007 509.955 447.468C508.354 446.498 508.815 444.298 510.445 443.697C513.251 442.669 516.5 442.873 519.69 443.074C521.365 443.18 523.024 443.284 524.594 443.208C528.174 443.037 531.795 442.658 535.325 441.918C536.485 441.678 537.634 441.398 538.774 441.068C547.134 438.658 556.955 430.178 550.315 420.918C550.065 420.568 550.344 420.248 550.684 420.187C550.835 420.158 550.995 420.187 551.125 420.298C558.684 426.557 554.754 437.777 547.604 442.588C545.145 444.248 542.365 445.408 539.485 446.258C540.035 447.267 540.134 448.508 539.474 449.687C533.875 459.668 524.395 468.437 515.514 475.488C506.395 482.727 495.875 489.557 484.565 492.758C473.985 495.738 462.56 494.488 451.557 493.283C448.977 493 446.421 492.721 443.905 492.498C436.724 491.867 429.565 491.117 422.395 490.287C420.474 490.068 418.485 489.898 416.464 489.708C418.365 492.208 419.875 495.088 420.865 496.818C424.085 502.437 421.115 509.838 414.875 511.557C414.224 511.738 413.554 511.838 412.895 511.857C411.214 515.227 407.214 517.708 403.514 516.437C401.905 515.888 400.354 515.138 398.865 514.238C375.594 534.678 351.094 553.857 325.895 571.838C279.165 605.178 230.184 635.628 179.395 662.398C167.955 668.428 156.428 674.296 144.803 679.936L134.797 684.759C123.722 690.089 112.387 695.39 100.625 698.697C98.332 699.342 95.931 699.863 93.471 700.262C93.4391 700.483 93.4311 700.693 93.4455 700.895C91.234 701.19 89.3041 701.235 87.6563 701.03L87.281 700.978C72.864 701.986 57.443 698.466 48.168 687.936C46.622 689.021 44.368 689.141 42.379 687.58C32.376 679.731 26.413 667.781 21.18 656.372C15.874 644.799 11.715 632.738 8.65899 620.382C2.55499 595.704 0.133988 570.248 0.00640295 544.863C-0.455012 447.044 24.043 348.366 66.595 260.547C77.387 238.274 89.283 216.417 102.489 195.48C115.659 174.6 130.952 155.195 150.537 139.967C156.169 135.589 162.028 131.586 168.071 127.898C164.015 125.888 162.404 120.775 162.12 116.233C161.49 106.146 162.692 94.5253 168.598 86.0143C176.883 74.0743 191.714 66.7123 205.466 63.1323C212.645 61.2643 220.071 60.1753 227.476 59.8073C229.158 59.7231 230.869 59.798 232.58 59.8728C234.752 59.9678 236.923 60.0628 239.033 59.8323C242.361 59.4703 244.419 57.4843 246.333 54.8733C251.236 48.1803 254.428 41.1603 261.461 36.2543C268.677 31.2213 278.028 29.2953 286.721 29.8173C296.848 30.4263 306.087 34.4163 315.006 39.0013C323.056 43.1393 330.87 47.7233 338.485 52.6133C339.881 49.3423 341.196 46.0463 342.419 42.7393C344.791 36.3273 346.854 29.7113 348.528 23.0833C350.225 16.3623 349.977 7.48629 355.103 2.43229C359.56 -1.96071 368.143 -0.235711 369.588 6.25729ZM510.812 38.7601C510.972 35.4816 511.133 32.1658 510.417 29.1003C510.317 28.6753 509.779 28.6823 509.559 28.9883C507.274 32.1729 506.43 36.4367 505.863 40.4991L505.737 41.4325L505.216 45.4513C504.536 50.9234 504.279 56.4296 504.608 61.9393C504.95 67.6563 505.753 73.3803 507.011 78.9683C508.312 84.7463 509.282 90.8113 514.136 94.5353C517.563 97.1663 521.693 93.4863 521.965 90.0433C522.235 86.6303 520.509 83.1485 518.854 79.8113C518.096 78.2842 517.354 76.7874 516.825 75.3413C515.242 71.0143 513.975 66.5723 513.007 62.0663C523.327 58.9923 534.493 60.7043 544.815 63.9033L546.221 64.3393C557.391 67.8115 570.388 72.1393 576.141 82.9323C579.145 88.5703 582.075 93.0123 587.685 96.3323C592.555 99.2133 598.668 100.768 601.91 105.754C604.503 109.74 604.148 113.539 603.457 117.625L602.976 120.397L602.86 121.107C602.507 123.342 602.412 125.576 602.792 127.597C596.182 123.402 589.424 119.439 582.524 115.686C584.465 113.451 586.24 111.124 587.638 108.684C588.624 106.967 588.669 104.773 587.638 103.058C583.317 95.8593 577.05 103.742 573.433 108.292C572.93 108.924 572.479 109.491 572.091 109.945L570.881 111.35C566.018 116.946 560.863 122.285 555.541 127.446C544.126 138.516 531.976 148.832 520.104 159.403C497.528 179.506 472.676 201.171 460.688 229.668C460.445 230.245 461.316 230.498 461.63 230.064C479.108 205.999 500.115 186.426 523.35 167.993C534.876 158.85 546.485 149.851 557.514 140.101C562.791 135.436 567.954 130.639 572.904 125.626L573.934 124.59C576.364 122.159 578.963 119.633 581.375 116.978C608.714 140.568 639.155 161.088 660.285 190.928C668.674 202.77 675.592 215.601 681.067 229.025C689.644 262.639 696.467 296.664 701.53 330.982C699.444 327.175 694.004 324.506 690.165 323.096L689.524 322.867C684.125 320.988 678.485 320.787 673.115 322.588C670.405 320.857 667.434 319.488 664.315 318.418C665.655 314.748 663.445 309.248 660.705 306.857C655.604 302.432 648.118 302.564 641.424 303.198L640.228 303.316L636.655 303.697C635.054 303.867 633.974 304.857 633.854 306.498C633.785 307.458 633.745 308.398 633.754 309.338C633.774 311.027 633.934 312.687 634.295 314.298C622.823 314.095 611.315 314.596 599.827 315.097C595.472 315.287 591.12 315.477 586.774 315.628C582.235 315.787 577.705 315.947 573.165 316.098C572.705 309.998 567.274 307.008 561.085 305.888C565.625 301.838 569.514 296.318 566.665 290.218C563.684 283.828 555.445 283.258 549.634 285.648C545.464 287.348 542.134 290.548 537.995 292.258C533.815 293.988 529.285 293.498 524.905 292.918L524.097 292.81C523.603 292.743 523.105 292.672 522.605 292.602C516.259 291.706 509.465 290.748 503.815 294.357C496.705 298.898 497.395 308.898 490.285 313.117C486.655 315.277 482.235 315.977 478.294 317.388C474.075 318.888 470.304 321.037 466.815 323.848C459.634 329.628 454.174 337.258 448.014 344.048C440.964 351.787 433.634 359.248 425.934 366.338C408.565 382.328 388.785 395.648 371.875 412.078C371.524 412.418 371.815 412.918 372.205 412.958C372.294 412.958 372.395 412.937 372.495 412.888C386.971 405.016 400.318 394.956 413.247 384.737L415.745 382.758C429.785 371.598 443.415 359.727 455.325 346.287C460.724 340.187 465.684 333.307 472.285 328.408C478.445 323.828 485.895 323.168 492.604 319.838C499.625 316.348 500.844 310.568 504.325 304.227C507.57 298.3 513.467 298.405 519.28 299.168L519.881 299.249L523.495 299.767C531.535 300.857 538.344 300.638 545.384 296.248C546.007 295.86 546.637 295.439 547.277 295.01C550.12 293.107 553.158 291.073 556.634 291.318C564.658 291.878 557.995 299.552 554.639 302.277L554.429 302.444L554.134 302.668C553.134 303.408 552.684 304.398 552.645 305.408C550.735 305.498 548.945 305.738 547.395 306.057C542.395 307.117 538.065 310.138 537.514 315.548C537.365 317.057 537.665 318.848 538.495 320.138C535.604 321.328 532.464 323.078 529.695 325.258C523.545 327.148 517.335 331.798 511.915 334.958C507.964 337.258 503.155 339.638 499.174 342.607C492.745 343.738 486.335 345.178 480.575 347.617C480.035 347.857 480.354 348.658 480.865 348.668C485.325 348.807 489.915 348.318 494.485 347.678C494.535 347.708 494.594 347.727 494.665 347.718C495.625 347.628 496.585 347.458 497.565 347.218C500.705 346.738 503.825 346.238 506.875 345.857C512.335 345.178 517.815 344.537 523.285 343.928C526.854 343.527 530.424 343.138 533.995 342.758C551.485 340.878 569.035 339.658 586.604 338.988C587.44 338.956 588.428 338.882 589.514 338.8C596.765 338.257 608.356 337.388 607.835 346.408C607.429 353.266 600.492 357.326 594.681 359.331L594.094 359.527C579.825 364.208 563.655 364.168 548.825 365.908C540.054 366.947 531.295 368.117 522.625 369.787C513.594 371.537 503.934 373.458 495.705 377.708C493.065 379.068 493.974 382.428 496.155 383.428C496.125 383.488 496.094 383.557 496.075 383.628C495.924 384.068 496.245 384.617 496.695 384.727C496.815 384.758 496.934 384.777 497.054 384.798C491.924 385.888 486.854 387.267 481.895 388.908C481.375 389.078 481.594 389.818 482.125 389.727C494.844 387.408 507.815 386.357 520.745 386.968C527.315 387.277 533.875 387.748 540.384 388.777C546.335 389.718 553.214 390.588 558.445 393.767C559.625 394.477 560.714 395.398 561.615 396.437C561.424 397.517 561.615 398.638 562.365 399.777C562.615 400.168 563.384 400.187 563.474 399.628C563.485 399.557 563.504 399.477 563.524 399.408C564.724 402.227 564.455 405.348 561.455 407.748C558.227 410.33 553.424 410.977 549.346 411.329L548.514 411.398C535.524 412.468 522.395 412.537 509.445 413.998C506.285 414.348 504.844 417.267 505.274 419.668C505.245 419.648 505.205 419.628 505.174 419.598C505.224 419.977 505.365 420.338 505.575 420.678C505.575 420.697 505.585 420.708 505.604 420.727C506.205 422.008 507.474 422.928 509.445 422.838C518.415 422.458 527.405 421.287 536.344 420.468C541.014 420.037 545.825 419.838 550.535 419.187C552.625 418.888 554.695 418.517 556.724 417.988C567.384 415.218 575.695 405.517 569.224 394.818C570.247 394.395 571.277 394.034 572.191 393.728L574.004 393.128C577.585 391.947 581.214 390.998 584.915 390.348C588.115 389.798 591.315 389.468 594.514 389.357C592.285 395.227 592.514 403.037 593.235 408.258C594.295 415.867 598.285 426.807 605.445 430.818C600.785 434.098 597.695 438.958 601.464 444.117C597.565 450.258 598.214 457.918 602.604 463.908C606.745 469.557 613.354 472.318 620.085 473.758C620.115 482.398 621.875 491.418 622.924 499.798C624.235 510.208 625.514 520.617 626.645 531.048C628.825 551.267 630.565 571.508 631.125 591.838C631.614 609.504 630.887 627.079 629.994 644.695L629.604 652.248C629.075 662.508 628.835 672.798 629.174 683.068C629.235 684.718 629.274 686.408 629.335 688.128L629.395 689.899C629.626 696.121 630.091 702.584 631.681 708.49L632.125 708.885C634.806 711.22 637.784 712.927 641.06 714.005C641.831 712.056 641.219 709.778 639.864 708.269C639.783 705.639 639.589 703.003 639.344 700.367C643.455 702.607 648.035 704.088 651.304 704.758C660.844 706.727 670.705 705.998 680.004 703.187C720.174 691.048 742.285 649.668 745.445 610.117C746.487 597.124 745.789 584.109 744.03 571.202C743.47 555.908 740.522 540.887 737.365 525.927L736.096 519.945L735.148 515.461C730.718 494.357 728.005 473.023 725.481 451.623C725.268 449.819 724.298 448.527 723.04 447.747C723.487 446.802 723.831 445.746 724.045 444.548C724.628 441.298 724.348 438.129 724.077 435.053C723.586 429.478 723.121 424.209 727.865 419.318C728.049 419.128 728.234 418.939 728.418 418.75C733.956 413.06 739.111 407.764 735.705 399.197C734.561 396.316 732.666 393.654 730.768 390.988C727.541 386.456 724.306 381.912 724.735 376.258C724.785 375.548 723.924 375.187 723.384 375.477C723.254 375.548 723.155 375.658 723.075 375.807C720.043 381.757 723.516 387.286 726.907 392.685C730.384 398.22 733.776 403.619 729.985 409.197C726.045 414.988 719.474 417.617 717.955 425.088C717.469 427.488 717.782 430.496 718.105 433.59C718.645 438.771 719.209 444.192 716.085 447.398C714.924 448.578 707.504 452.517 706.445 453.428C704.085 455.428 702.155 457.888 700.445 460.447C697.094 465.468 694.804 471.107 691.625 476.227C691.415 476.568 691.195 476.908 690.974 477.248C686.934 483.428 681.424 486.767 673.844 485.447C665.365 483.977 658.434 477.777 650.865 474.057C641.865 469.638 632.065 469.807 622.445 467.848C622.035 467.767 621.625 467.678 621.214 467.588C616.835 466.588 612.264 464.988 609.094 461.727C605.764 458.307 603.835 452.517 606.415 448.197C609.209 449.494 612.427 449.857 615.578 450.026L616.626 450.076L622.538 450.31C629.226 450.556 635.92 450.692 642.615 450.718C650.415 450.738 658.224 450.617 666.024 450.338L666.859 450.31C674.122 450.083 682.005 450.239 689.035 448.458C691.695 447.787 690.875 444.187 688.424 443.947C684.295 443.55 679.951 443.886 675.694 444.216C674.076 444.341 672.471 444.466 670.895 444.548C665.045 444.848 659.195 445.057 653.344 445.187C641.634 445.437 629.924 445.357 618.224 444.918C615.304 444.807 609.304 444.388 606.485 442.158C604.884 440.888 604.315 439.017 605.934 436.287C608.375 432.178 615.445 430.787 619.585 429.388L620.986 428.921C627.996 426.601 635.066 424.546 642.274 423.168L644.301 423.164C662.806 423.057 681.039 420.759 699.075 416.568C701.915 415.908 700.695 411.678 697.875 412.227C682.585 415.218 667.004 416.918 651.434 417.468C644.004 417.727 636.575 417.678 629.155 417.318L628.875 417.306C628.405 417.288 627.905 417.277 627.383 417.267C624.014 417.198 619.792 417.112 617.625 414.658C615.285 412.027 616.014 407.777 617.674 405.027C620.847 399.754 627.992 396.952 633.514 394.559L634.274 394.227L636.115 393.435C642.2 390.855 648.474 388.644 654.825 386.787C663.514 384.258 672.405 382.598 681.354 381.357C687.134 380.548 692.934 379.908 698.735 379.318C699.524 379.238 699.514 378.187 698.735 378.098C696.325 377.798 693.905 377.598 691.485 377.488C694.295 376.418 697.085 375.328 699.865 374.227C702.774 373.078 706.174 372.238 708.634 370.388C709.575 370.367 710.514 370.318 711.434 370.218C715.195 369.818 716.665 364.138 712.395 363.128C710.905 362.777 709.384 362.527 707.844 362.348C703.545 361.838 699.104 361.838 694.854 361.548L694.197 361.508C692.855 361.435 691.456 361.406 690.036 361.377C686.083 361.294 681.958 361.209 678.405 360.158C672.086 358.278 676.904 351.756 680.255 348.853L680.62 348.545L680.974 348.267C684.795 345.378 689.585 343.767 694.315 343.227C699.72 342.616 705.183 343.171 710.538 344.026L712.653 344.375C717.776 345.214 723.481 345.843 728.094 348.298C733.604 351.227 736.145 356.568 732.934 362.338C730.569 366.589 726.133 369.248 721.859 371.604L720.217 372.503L719.014 373.168C718.295 373.568 718.795 374.607 719.554 374.447C720.684 374.218 721.815 373.958 722.934 373.678C728.604 372.238 734.035 369.958 737.754 365.158C742.134 359.508 742.045 352.298 737.684 346.687C733.639 341.501 727.545 339.473 721.369 338.08L720.507 337.89L718.785 337.527C715.82 336.926 712.822 336.33 709.805 335.845C711.067 334.744 711.88 333.085 711.585 331.043C709.329 315.455 706.686 299.932 703.703 284.474C703.928 280.038 702.883 275.216 701.923 270.78C701.657 269.554 701.398 268.358 701.174 267.208L700.833 265.482C699.558 259.157 698.019 252.884 696.205 246.687C695.518 244.349 694.779 242.025 694.016 239.71C692.949 235.278 684.36 215.561 681.078 208.817L680.701 208.053L680.375 207.418C666.905 181.838 647.474 160.098 624.495 142.658C620.551 139.662 616.537 136.783 612.468 133.99C614.366 132.76 615.53 130.229 614.92 127.999C614.143 125.158 613.862 123.947 614.434 120.996C615.072 117.716 615.627 114.572 615.284 111.209C614.641 104.891 611.6 98.7693 606.701 94.6743C601.896 90.6573 595.7 89.2543 590.702 85.6293C587.471 83.2863 586.17 79.5923 584.132 76.3223C582.434 73.5973 580.406 71.1253 577.958 69.0373C568.043 60.5853 553.404 56.4253 540.753 54.5453C530.973 53.0923 520.831 53.6723 512.249 58.1863C511.433 53.5603 510.879 48.8923 510.701 44.1973C510.634 42.4308 510.723 40.6017 510.812 38.7601ZM311.752 142.813C306.286 137.205 300.996 130.648 294.537 126.165C294.079 125.848 293.625 126.449 293.832 126.871C297.518 134.375 303.681 140.999 308.718 147.645L311.115 150.79C315.12 156.021 319.184 161.202 323.278 166.367C332.027 177.404 341 188.248 350.779 198.396C369.66 217.991 391.065 235.312 416.904 244.68C423.031 246.9 425.709 237.09 419.596 234.916C394.334 225.932 373.627 208.342 355.323 189.227C346.138 179.635 337.245 169.766 328.188 160.056C322.768 154.246 317.297 148.503 311.752 142.813ZM185.328 183.25C190.167 190.341 193.188 199.767 196.168 207.871L196.466 208.676C199.634 217.192 202.69 225.775 205.54 234.404C211.229 251.629 218.643 269.654 220.013 287.85C220.266 291.208 215.127 292.555 213.637 289.578C209.356 281.021 207.054 272.102 204.521 262.927C202.105 254.178 199.588 245.46 197.07 236.74C194.553 228.024 192.118 219.283 189.639 210.557C187.228 202.068 183.871 192.629 183.319 183.794C183.247 182.646 184.772 182.434 185.328 183.25ZM156.924 250.436C166.42 269.622 173.564 290.022 178.954 310.719C181.557 320.714 183.765 330.807 185.541 340.981L186.124 344.379L186.455 346.223C186.565 346.821 186.676 347.422 186.788 348.027C188.372 356.583 190.06 365.699 187.784 373.964C186.989 376.855 182.189 377.999 180.845 374.872C176.791 365.432 177.361 354.581 176.186 344.479C174.951 333.879 173.266 323.329 171.166 312.866C167.133 292.761 161.471 273.128 155.16 253.641L154.456 251.477C153.92 250.034 156.254 249.083 156.924 250.436ZM603.846 330.224C603.309 328.271 604.514 325.695 606.639 325.305C610.417 324.609 614.332 324.533 617.982 325.881C620.017 326.631 621.39 328.567 620.776 330.801C620.239 332.758 617.882 334.343 615.856 333.595C613.553 332.746 611.184 332.574 608.766 333.019L608.56 333.053C606.495 333.349 604.44 332.387 603.846 330.224ZM632.658 326.658C632.233 326.796 631.857 327.02 631.53 327.325L631.371 327.485C630.981 327.848 630.705 328.277 630.544 328.772C630.294 329.25 630.178 329.764 630.199 330.314L630.342 331.377C630.532 332.055 630.875 332.642 631.371 333.142L632.18 333.767C632.726 334.084 633.31 334.263 633.931 334.305L634.199 334.314L635.009 334.315C635.472 334.299 635.907 334.184 636.316 333.969C636.741 333.831 637.117 333.609 637.444 333.302L637.603 333.142C637.994 332.779 638.269 332.35 638.43 331.855C638.645 331.446 638.76 331.01 638.775 330.548L638.775 330.314L638.632 329.25C638.466 328.657 638.182 328.133 637.782 327.677L637.603 327.485L636.794 326.859C636.248 326.543 635.664 326.365 635.043 326.323L634.775 326.314L634.199 326.314C633.648 326.293 633.134 326.408 632.658 326.658ZM513.764 340.037C516.264 338.818 519.094 337.598 521.924 336.267C521.745 337.148 521.655 338.057 521.684 338.977C518.844 339.398 516.004 339.848 513.174 340.328C513.375 340.227 513.575 340.138 513.764 340.037ZM597.857 390.621L598.115 389.318C601.974 389.378 605.844 389.738 609.705 390.388C615.655 391.388 619.174 392.398 624.024 393.218C623.735 393.357 623.434 393.517 623.145 393.678L622.473 394.051C617.111 397.08 612.109 401.354 610.995 407.727C609.026 419.002 618.138 422.162 627.795 422.979L628.387 423.026L629.304 423.088C623.524 424.197 617.825 425.678 612.245 427.447C611.575 427.658 610.884 427.918 610.184 428.208C610.134 427.867 610.014 427.517 609.825 427.168C607.995 423.878 605.125 421.357 603.145 418.148C601.054 414.738 599.585 411.017 598.535 407.168C597.464 403.277 597.004 399.248 597.205 395.218C597.275 393.678 597.557 392.144 597.857 390.621ZM199.826 404.401C199.902 409.235 198.506 414.312 197.16 419.21C196.638 421.109 196.123 422.981 195.704 424.802C194.09 431.825 192.48 438.848 190.848 445.868L189.381 452.157C188.158 457.398 186.953 462.643 185.873 467.917C184.985 472.252 184.613 477.965 183.158 482.744C200.465 475.744 217.799 468.815 235.104 461.838C256.424 453.239 277.844 444.878 299.214 436.418C320.504 427.998 341.674 418.418 363.395 411.218C368.565 409.498 372.065 417.748 367.114 420.037C345.054 430.268 321.714 438.278 299.114 447.239L266.423 460.217C236.454 472.108 206.464 483.942 176.324 495.368C155.794 503.149 135.344 511.159 114.684 518.548C104.834 522.069 94.8954 525.399 85.0944 529.048C76.8844 532.108 68.0044 536.649 64.9644 545.468C64.8044 545.928 64.1744 545.739 64.2444 545.268C65.4744 536.728 71.8154 531.388 78.9644 527.348C88.4531 521.972 98.875 518.06 108.891 513.749L110.254 513.159C130.707 504.239 151.325 495.68 172.004 487.264C171.799 486.764 171.678 486.228 171.669 485.668L171.61 485.684C171.307 482.6 172.389 479.786 173.481 476.946C173.742 476.266 174.005 475.584 174.248 474.896L177.865 464.692C180.275 457.897 182.437 451.018 184.664 444.162C186.993 436.996 189.344 429.837 191.691 422.677C193.679 416.612 195.015 409.383 198.416 403.962C198.826 403.309 199.956 403.676 199.826 404.401ZM715.031 454.729L715.067 454.722C716.289 454.912 719.253 498.99 723.985 519.048L724.346 520.585C729.969 544.662 734.008 568.508 734.174 593.447C734.315 615.607 729.875 637.758 717.774 656.578C707.695 672.267 692.395 685.107 673.995 689.468C665.905 691.378 656.724 691.428 649.125 687.648C645.524 685.857 642.835 681.838 638.895 680.918C638.514 680.828 638.134 680.767 637.754 680.738C637.616 672.938 637.85 665.132 638.134 657.334L638.489 647.756C639.2 628.116 639.682 608.544 638.724 588.898C637.735 568.607 635.785 548.328 632.985 528.208C631.545 517.828 630.045 507.418 628.205 497.098C626.884 489.738 625.854 481.758 623.634 474.408C624.325 474.517 625.014 474.607 625.695 474.697C631.384 475.408 637.174 475.408 642.774 476.807C647.707 478.037 651.948 480.441 656.227 483.044L657.767 483.987C658.275 484.301 658.788 484.62 659.305 484.942C665.735 488.947 672.821 493.36 680.585 492.187C684.504 491.598 687.615 490.068 690.205 487.937C690.264 492.727 690.674 497.548 691.674 502.238C693.246 509.597 695.945 516.525 698.903 523.389L699.754 525.349L700.615 527.307C704.155 535.328 708.094 543.178 710.825 551.537L710.828 551.547C711.219 551.634 711.592 551.72 711.948 551.802C715.939 552.722 717.841 553.161 720.217 548.711C720.42 548.33 720.659 548.023 720.918 547.764C718.532 541.009 715.465 534.474 712.335 528.057C708.445 520.078 704.235 512.238 700.875 504.008C698.964 499.348 697.315 494.498 696.054 489.607C695.504 487.477 695.224 485.187 694.825 482.937C699.705 476.227 704.663 460.873 715.031 454.729Z" transform="translate(29.99361 -11.99969)" fill="#000000" fill-rule="evenodd" stroke="none"></path></g><g transform="translate(225 0)"><g><g><path d="M463.868 89.4628C461.647 83.8578 457.719 76.8128 451.154 76.5318C446.076 61.0068 433.45 45.1958 415.888 45.6158C364.34 -7.09816 299.444 -4.61316 231.594 6.54584C195.798 13.1848 159.451 26.1848 132.753 51.8388C100.777 82.0408 88.326 134.74 113.366 172.931C91.725 184.528 91.305 212.048 100.56 231.907C89.435 239.6 88.759 258.272 101.286 264.14C100.62 266.868 101.091 269.688 102.361 272.112C96.15 277.282 88.066 281.101 81.383 284.384C78.429 285.835 76.725 288.205 76.017 290.876C54.073 305.272 -0.645004 340.454 0.006996 368.455C-0.315004 383.063 10.521 392.677 23.689 396.505C15.854 412.168 9.907 430.463 17.407 447.359C19.48 452.464 35.0122 467.467 35.7942 467.744C37.1612 468.916 59.444 458.686 70.274 453.468C72.374 467.128 86.981 474.285 99.572 469.604C111.511 466.005 118.85 455.898 126.38 446.704C136.375 468.507 165.782 468.758 184.788 459.358C201.857 451.473 214.832 437.021 222.06 419.606C260.442 438.395 305.348 443.872 347.048 436.367C349.724 441.103 355.648 444.284 360.925 442.452C383.099 435.786 407.616 435.412 426.412 420.139C465.591 392.018 468.89 340.174 466.158 295.981C463.735 251.918 465.856 207.488 457.846 163.901C461.322 151.068 467.104 139.723 472.454 127.667C478.266 115.025 478.144 96.2318 463.868 89.4628Z" transform="translate(-56 55.00036)" fill="#FFFFFF" stroke="none"></path><path d="M218.145 7.81926C246.303 0.55726 274.88 -1.32974 303.804 0.85626C331.081 2.91626 362.154 9.01926 384.432 25.7963C385.513 26.6103 384.866 28.1513 383.528 27.9383C368.634 25.5643 354.116 21.2463 339.286 18.3893C325.022 15.6413 310.501 13.5783 295.977 13.1003C246.855 11.4813 192.196 22.6123 152.586 53.2373C134.013 67.5963 119.839 86.9043 114.198 109.877C108.413 133.44 111.543 158.922 123.16 180.237C124.833 183.306 124.143 188.161 120.653 189.795C110.063 194.753 102.52 205.737 102.684 217.59C102.763 223.339 104.745 228.852 107.93 233.604C111.298 238.629 116.425 242.145 120.192 246.838C121.675 248.686 121.732 251.231 120.557 252.933C122.76 253.898 125.136 254.416 127.304 255.556C129.142 256.523 129.194 259.542 127.304 260.494C122.524 262.901 117.356 260.346 114.13 256.465C113.554 255.772 113.056 255.051 112.602 254.315C108.738 253.496 105.276 251.557 102.253 248.905C96.493 252.354 95.704 260.032 100.652 265.899C103.179 268.894 106.769 270.743 110.397 272.072L110.833 272.229C114.364 273.483 117.598 274.183 119.892 277.008C121.405 273.854 123.142 270.881 125.078 268.172C132.117 258.325 142.937 249.589 155.776 250.698C165.833 251.565 174.546 258.765 176.607 268.699C176.759 269.434 175.651 270.008 175.321 269.241C170.496 257.99 155.229 257.577 146.135 263.44C135.44 270.336 129.595 283.331 127.25 295.434C124.942 307.356 126.276 321.856 135.199 330.924C138.85 334.635 143.817 337.201 149.001 337.877C151.535 338.209 153.77 337.883 156.194 337.395L157.8 337.059C158.914 336.829 160.021 336.643 161.19 336.746L162.931 336.98L163.92 337.443C164.778 337.829 164.701 337.723 163.688 337.125C166.646 336.883 168.175 339.069 168.337 341.466C168.431 341.526 168.522 341.591 168.598 341.684C179.824 355.422 188.159 371.213 200.072 384.501L203.559 388.394C212.525 398.367 222.76 409.179 234.939 414.353L236.388 414.952C239.931 416.449 243.489 418.497 243.941 422.768C244.346 426.594 241.33 429.473 237.853 430.366C229.935 432.397 220.909 425.36 215.11 420.743C202.64 410.818 192.16 398.166 183.505 384.854L182.649 383.528C175.535 372.417 168.848 359.745 166.77 346.557L166.395 347.165C166.367 347.208 166.345 347.241 166.331 347.26C165.907 347.836 165.44 348.322 164.898 348.788C163.442 350.045 161.666 350.779 159.821 351.277C156.358 352.212 152.561 352.396 149.001 352.032C141.77 351.293 135.011 348.541 129.295 344.059C111.891 330.41 109.836 305.012 116.875 284.407C111.099 285.786 104.52 281.899 100.01 278.568C94.838 274.746 90.573 269.229 89.554 262.739C88.542 256.299 92.648 247.771 98.738 245.286C92.419 237.699 88.74 226.932 88.36 218.311C87.7 203.315 95.667 189.141 107.899 180.959C96.396 156.308 94.18 127.709 101.925 101.535C117.294 49.5963 168.778 20.5513 218.145 7.81926ZM442.428 63.1354C436.788 56.4404 428.75 47.0594 418.939 50.7954C418.265 51.0514 418.276 52.2804 419.126 52.1764C428.607 51.0235 435.152 61.4233 439.82 68.8394C440.039 69.1869 440.253 69.5278 440.464 69.8606L441.422 71.3674C445.862 78.4024 449.7 85.9097 451.65 94.0394C453.393 101.301 453.258 108.938 450.662 115.987C449.403 119.404 447.531 122.654 445.008 125.293C442.147 128.285 439.938 129.398 439.152 133.684C438.785 135.69 439.682 137.789 441.805 138.356C447.022 139.747 450.097 137.36 453.281 133.477L453.672 132.994C456.732 129.166 458.974 124.817 460.413 120.127C463.32 110.655 462.752 100.309 459.525 91.0044C455.902 80.5614 449.493 71.5244 442.428 63.1354ZM386.666 70.2916C404.294 68.0386 415.029 88.7766 418.34 103.063C420.408 111.994 420.86 121.957 418.215 130.821L418.018 131.452C415.865 138.067 409.513 149.402 401.22 146.022C398.948 145.096 396.629 142.573 397.717 139.853C399.106 136.376 401.111 135.474 403.783 133.249C405.841 131.536 407.278 129.077 408.336 126.655C411.154 120.2 411.782 112.659 411.397 105.703L411.344 104.879C410.348 91.2925 402.981 71.0442 386.666 71.4166C385.921 71.4336 385.972 70.3796 386.666 70.2916ZM361.459 109.192C358.929 93.6854 347.884 72.8804 329.659 73.7484C328.82 73.7874 328.81 75.0834 329.659 75.0614C344.802 74.6517 350.554 97.7978 351.162 109.857L351.193 110.581C351.42 117.137 350.134 123.891 346.21 129.282C342.712 134.089 336.962 135.924 333.242 140.426C330.811 143.367 331.774 147.244 335.393 148.573C343.944 151.717 351.88 144.074 356.244 137.435L356.557 136.951C361.847 128.641 363.021 118.773 361.459 109.192ZM280.639 80.0935C279.752 79.5285 279.043 80.8675 279.836 81.4695C292.247 90.9015 298.423 104.238 298.347 119.713C298.316 126.321 297.29 132.822 294.717 138.948C292.244 144.84 288.017 149.22 282.767 152.691C281.148 153.762 280.076 155.813 280.699 157.774C282.306 162.828 287.643 165.785 292.821 164.504C298.453 163.109 302.481 158.252 304.828 153.164C308.92 144.297 309.86 134.029 308.629 124.421C306.411 107.104 295.394 89.4775 280.639 80.0935ZM460.077 88.1766C459.394 87.4196 460.253 86.3036 461.157 86.7776C471.824 92.3876 478.602 103.134 480.544 114.903C482.447 126.425 479.887 142.111 470.968 150.444C465.935 155.148 456.919 148.892 461.103 142.833C464.053 138.56 467.242 135.041 468.931 129.992C470.437 125.487 470.97 120.944 470.888 116.21C470.709 105.882 467.019 95.8766 460.077 88.1766ZM215.483 102.565C228.207 101.842 239.07 110.239 244.351 121.417C250.088 133.553 247.681 147.477 242.618 159.417L241.179 162.758C238.662 168.548 235.356 175.433 230.199 178.54C224.407 182.03 219.4 177.983 221.108 171.55C222.126 167.719 224.881 164.764 227.11 161.602C229.19 158.649 231.131 155.593 232.833 152.405C236.167 146.153 238.656 139.187 238.629 132.024C238.582 118.95 229.944 103.967 215.483 104.159C214.45 104.171 214.467 102.622 215.483 102.565ZM461.307 156.251C461.239 155.759 460.505 155.916 460.479 156.364C458.584 188.202 458.197 219.836 458.641 251.721C459.083 283.509 458.758 315.294 459.127 347.079C459.141 348.305 459.16 349.536 459.178 350.77C459.368 363.295 459.563 376.161 455.241 388.044C451.548 398.198 444.527 406.745 436.452 413.759C417.872 429.901 392.452 437.717 368.354 440.215C354.028 441.699 339.376 441.572 325.123 439.428C318.487 438.431 311.925 436.989 305.432 435.309C305.237 435.258 305.041 435.207 304.844 435.156C301.146 434.19 297.103 433.135 293.553 435.212C290.685 436.89 288.909 439.356 289.312 442.699C290.143 449.602 296.65 451.622 302.477 453.11L305.677 453.91C313.077 455.698 320.623 456.888 328.178 457.783C342.725 459.505 357.458 459.417 371.989 457.584C397.01 454.428 422.512 446.958 443.069 431.849C464.523 416.083 477.607 394.175 478.432 367.231C478.833 354.142 477.579 340.83 476.34 327.665C475.95 323.523 475.561 319.395 475.226 315.294C473.766 297.423 472.432 279.548 471.257 261.655C468.94 226.336 466.141 191.329 461.307 156.251ZM207.414 180.036C207.67 177.841 205.338 175.961 203.336 175.958C200.008 175.954 198.441 176.219 195.615 178.097L195.131 178.415C192.872 179.88 190.601 181.091 187.97 181.817C182.971 183.195 178.41 182.812 173.486 182.399C173.354 182.388 173.222 182.377 173.089 182.366L171.315 182.223C169.746 182.103 169.258 184.098 170.152 185.053L170.142 185.057C172.484 188.028 175.994 189.976 179.789 191.069C174.761 199.588 172.188 209.438 174.604 219.368C176.087 225.464 179.408 230.96 180.874 237.075C182.434 243.581 181.471 250.268 178.416 256.187L178.315 256.39C177.426 258.246 177.133 260.754 178.416 262.528C179.944 264.641 181.213 265.401 183.84 265.639C185.866 265.823 188.377 264.343 189.264 262.528C195.327 250.114 194.701 237.704 189.132 225.272L189.065 225.122C186.189 218.707 183.528 212.77 183.74 205.577C183.855 201.667 184.466 197.828 185.127 193.991L185.459 192.073C187.038 192.19 188.596 192.182 190.068 192.046C193.958 191.686 197.686 190.777 201.235 189.132C205.418 187.19 206.761 184.824 207.337 180.645L207.414 180.036ZM100.609 282.496C102.918 281.916 104.158 285.019 102.198 286.266C89.7541 294.181 76.8991 301.25 64.8781 309.862C53.4446 318.049 42.8841 327.375 33.0364 337.401L31.9451 338.518C23.0421 347.677 13.1821 359.329 13.0821 372.84C13.0051 383.342 21.1021 394.805 32.3991 393.425C36.6551 392.905 40.5671 398.305 39.0821 402.198L37.5196 406.301C31.234 422.906 24.8388 441.72 29.8039 459.19L29.9861 459.813C31.1871 463.813 32.4531 467.348 37.0961 467.268C41.4051 467.192 45.8891 465.739 49.9231 464.352C58.2941 461.473 65.8801 456.672 72.3191 450.634C78.0145 445.294 85.2911 450.719 84.5243 457.506L84.4971 457.723C83.4481 465.339 95.5811 468.875 101.097 467.786C111.988 465.632 119.753 454.72 125.938 446.401C128.911 442.404 136.132 440.83 138.744 446.401C143.92 457.436 154.589 465.684 167.07 466.03C173.553 466.209 179.773 464.364 185.264 460.942C187.505 459.545 189.51 457.883 191.348 456L191.804 455.524C194.524 452.641 196.401 451.108 199.875 449.225C203.298 447.37 207.726 449.67 207.705 453.717C207.677 458.959 206.141 462.444 202.526 466.246C199.535 469.395 195.981 472.159 192.245 474.368C184.737 478.804 175.811 481.3 167.07 481.011C153.292 480.555 140.141 473.688 131.616 463.008C122.912 473.415 112.115 482.977 98.0841 482.72C87.5801 482.528 77.7911 477.06 73.1011 468.588C66.4801 473.153 59.2131 476.722 51.4391 479.053L50.7464 479.258C39.7424 482.46 27.079 483.733 19.9961 472.809C13.3461 462.553 12.8501 448.35 14.3741 436.627C15.7351 426.155 18.9571 416.21 22.6571 406.401C12.1251 403.256 3.95009 393.363 1.14209 382.699C-3.10591 366.573 5.13509 350.934 15.3231 338.952C26.3901 325.936 40.3191 314.927 54.3521 305.291C68.3481 295.682 84.0271 286.652 100.609 282.496ZM145.279 289.172C154.212 278.918 175.211 284.334 179.193 296.809C180.073 299.564 179.155 303.145 177.003 305.095C174.168 307.664 170.124 308.442 166.682 306.427C163.72 304.694 162.504 301.858 160.327 299.425C157.134 295.86 152.791 293.881 148.316 292.463C147.197 293.051 146.156 293.824 145.222 294.756C144.744 295.233 143.841 294.579 144.265 294.017C144.841 293.253 145.545 292.534 146.346 291.871L145.961 291.758C144.783 291.43 144.528 290.036 145.279 289.172ZM108.646 331.349C108.099 329.161 104.987 327.541 103 329.051C98.7081 332.312 98.3391 337.834 94.3801 341.221C90.92 344.182 88.1506 342.454 85.1904 340.607C83.9209 339.815 82.6163 339.001 81.2071 338.525C71.6248 335.292 66.5043 346.667 63.5314 354.458L62.7101 356.647C62.3001 357.748 63.8051 358.952 64.7751 358.235C67.2031 356.441 69.3471 354.487 71.5141 352.382C71.885 352.022 72.2762 351.59 72.6862 351.136C74.2071 349.455 75.9858 347.488 77.9401 347.881C79.8611 348.268 81.9321 350.604 83.6821 351.518C85.9381 352.697 88.3881 353.313 90.9351 353.235C100.829 352.928 111.125 341.255 108.646 331.349ZM128.695 383.575L129.133 382.966C133.618 376.837 141.182 369.463 148.751 375.164C151.158 376.977 151.247 380.003 148.751 381.802L147.807 382.476C144.5 384.82 141.208 387.034 138.779 390.396C136.14 394.051 133.77 397.921 130.222 400.788C123.947 405.858 113.806 406.858 108.361 400.023L107.826 399.344C107.37 398.758 106.847 398.052 106.423 397.347L106.093 397.804C106.06 397.85 106.03 397.894 106.002 397.935L105.926 398.052C103.688 401.628 100.861 404.573 97.3401 406.897C90.6481 411.312 83.1071 411.926 75.5361 409.589C74.7951 409.359 74.9941 408.366 75.7111 408.3C84.6821 407.462 93.4231 401.089 97.0721 392.882L97.4842 391.961C98.9608 388.696 100.615 385.593 104.263 384.312C107.814 383.064 111.542 384.382 113.977 387.068C114.604 387.759 115.088 388.661 115.564 389.549C116.635 391.545 117.668 393.473 120.21 392.792C124.232 391.714 126.496 386.677 128.695 383.575ZM174.468 401.987L174.324 402.443C172.871 406.886 167.703 412.478 164.46 406.59L164.347 406.388C162.128 402.511 158.187 399.89 153.992 403.22C149.233 406.997 149.592 415.072 147.457 420.294C147.111 421.139 148.479 421.68 148.913 420.908C150.746 417.643 153.132 414.43 155.658 411.67C156.036 411.258 156.184 410.908 156.236 410.673C156.276 410.887 156.372 411.216 156.585 411.696C157.132 412.93 157.653 414.048 158.576 415.067C161.742 418.564 166.712 419.688 171.238 418.813C176.802 417.737 180.945 413.721 183.344 408.712C185.349 404.526 189.009 395.927 183.276 393.022C177.837 390.265 176.028 396.571 174.825 400.767C174.7 401.2 174.583 401.611 174.468 401.987Z" transform="translate(-56.99969 48.99964)" fill="#000000" fill-rule="evenodd" stroke="none"></path></g></g><g transform="translate(159 186)"><g><path d="M140.63 0.473197L139.193 0.179116C137.503 -0.15929 135.804 -0.0161244 134.311 0.591153C132.847 1.18684 131.572 2.2242 130.68 3.72083C129.495 5.71373 129.337 7.38618 129.887 9.59525C130.311 11.3022 131.242 12.5864 132.46 13.5139C133.744 14.4911 135.37 15.0612 137.06 15.2595C144.854 16.175 152.53 17.8896 159.992 20.3235C163.488 21.4643 166.788 23.0096 170.058 24.6132L172.877 26.002C175.477 27.2735 178.163 28.499 181.557 29.3885C181.824 29.4584 182.087 29.5243 182.349 29.5865C183.29 29.2909 183.45 28.9329 183.649 28.6733L183.73 28.5721C183.972 28.2679 184.271 27.8025 183.988 25.6306C176.583 10.2711 156.267 3.74181 140.63 0.473197ZM43.5878 4.83023L45.4652 4.50163C51.273 3.49719 58.4944 2.53203 62.6028 7.20123C64.7819 9.67723 65.5318 14.2792 62.6028 16.6492C58.7671 19.7539 54.6298 19.6513 50.2182 19.5419C48.7043 19.5044 47.1582 19.466 45.5808 19.5562C40.4928 19.8482 35.6028 20.6902 30.7018 22.0912C19.9498 25.1642 11.1888 30.7742 2.00585 36.9342C0.800849 37.7422 -0.429151 36.2012 0.145849 35.0742C5.44685 24.6912 15.7198 16.1622 26.0098 10.9632C31.5019 8.18823 37.5118 5.88623 43.5878 4.83023ZM29.9632 50.1461C30.7976 39.7899 46.5702 37.4381 48.1392 47.6861C49.5442 56.8661 47.8902 65.2991 43.7552 73.5641C39.8042 81.4601 29.8737 77.7763 29.1227 70.5863C28.3809 63.4843 28.9069 59.2482 29.4428 54.933C29.6341 53.3921 29.8267 51.8412 29.9632 50.1461ZM159.205 41.8262C155.401 40.7152 152.226 42.6812 150.027 45.5612C149.773 45.8932 149.566 46.2222 149.38 46.5482C142.515 52.8562 145.101 65.6452 150.501 72.0492C153.814 75.9762 161.145 74.8452 163.413 70.3852C167.587 62.1722 171.09 45.2992 159.205 41.8262ZM128.748 119.039C136.872 107.66 125.366 96.9569 117.814 92.3669C115.836 90.9469 117.406 86.2431 121.634 86.9701C160.031 93.5671 140.136 159.708 91.112 123.413C85.2754 118.704 92.3434 108.334 98.6342 112.366C98.9532 112.611 99.2876 112.869 99.6364 113.139C106.704 118.603 119.636 128.601 128.748 119.039ZM93.5865 188.926C86.8642 186.184 80.8663 181.61 76.4812 175.766C74.9566 173.735 74.5614 171.589 74.8812 169.627C75.2408 167.421 76.546 165.422 78.326 164.08C80.1115 162.735 82.345 162.072 84.5043 162.41C86.3806 162.704 88.2484 163.731 89.7265 165.862L90.0354 166.288C92.6424 169.815 96.0396 172.708 99.9104 174.574C103.641 176.372 107.814 177.211 112.132 176.723C120.356 175.794 126.024 171.346 132.049 165.306C132.796 164.544 133.543 163.757 134.294 162.958C134.768 162.234 135.426 161.768 136.157 161.524C136.968 161.253 137.886 161.268 138.726 161.562C139.537 161.845 140.262 162.381 140.747 163.094C141.209 163.772 141.471 164.61 141.386 165.574C140.835 171.833 137.562 177.419 132.914 181.805C127.752 186.677 120.909 190.047 114.466 191.229C107.368 192.531 100.136 191.598 93.5865 188.926Z" transform="translate(53.00005 52.00027)" fill="#000000" fill-rule="evenodd" stroke="none"></path></g></g><g transform="translate(123 338)"></g><g transform="translate(47 241)"></g></g></g></svg>